<svg width="20" height="27" viewBox="0 0 20 27" fill="none" xmlns="http://www.w3.org/2000/svg">
<path d="M15.9941 4.32031V2.45703H17.3828C19.0762 2.45703 19.9229 3.33008 19.9229 5.07617V22.5225C19.9229 22.9854 19.873 23.3721 19.7734 23.6826C19.6797 23.9932 19.5127 24.2627 19.2725 24.4912C19.0322 24.7256 18.6895 24.9512 18.2441 25.168C17.6406 25.4609 16.9639 25.7158 16.2139 25.9326C15.4697 26.1494 14.6846 26.3252 13.8584 26.46C13.0381 26.6006 12.2031 26.7031 11.3535 26.7676C10.5098 26.8379 9.68066 26.873 8.86621 26.873C7.94043 26.8672 7.01465 26.8115 6.08887 26.7061C5.16895 26.6064 4.28711 26.457 3.44336 26.2578C2.60547 26.0586 1.84082 25.8154 1.14941 25.5283C0.733398 25.3408 0.449219 25.1035 0.296875 24.8164C0.150391 24.5352 0.0771484 24.1602 0.0771484 23.6914V4.3291C0.0771484 3.74902 0.244141 3.29492 0.578125 2.9668C0.912109 2.63281 1.39258 2.46582 2.01953 2.46582H2.82812C4.12891 2.46582 5.37109 2.39258 6.55469 2.24609C7.74414 2.09961 8.91016 1.8916 10.0527 1.62207C11.1953 1.35254 12.3438 1.0332 13.498 0.664062C13.7324 0.587891 13.9492 0.532227 14.1484 0.49707C14.3477 0.456055 14.5293 0.435547 14.6934 0.435547C15.1973 0.435547 15.5898 0.579102 15.8711 0.866211C16.1523 1.14746 16.293 1.57227 16.293 2.14062V20.1582C16.293 20.6504 16.2197 21.0371 16.0732 21.3184C15.9326 21.5996 15.666 21.8896 15.2734 22.1885C14.7109 22.6162 14.0078 23.0029 13.1641 23.3486C12.3203 23.7002 11.3799 23.999 10.3428 24.2451C9.30566 24.4971 8.21289 24.6846 7.06445 24.8076C5.92188 24.9365 4.76758 24.9922 3.60156 24.9746V24.7373C4.47461 24.8896 5.3418 24.9951 6.20312 25.0537C7.07031 25.1123 7.95801 25.1445 8.86621 25.1504C9.61035 25.1504 10.3633 25.1123 11.125 25.0361C11.8926 24.96 12.6455 24.8516 13.3838 24.7109C14.1221 24.5762 14.8223 24.4121 15.4844 24.2188C16.1523 24.0254 16.7529 23.8086 17.2861 23.5684C17.6025 23.4336 17.8076 23.2783 17.9014 23.1025C18.001 22.9268 18.0508 22.6689 18.0508 22.3291V5.11133C18.0508 4.58398 17.8135 4.32031 17.3389 4.32031H15.9941ZM1.94043 22.8389C1.94043 23.1143 2.08105 23.2578 2.3623 23.2695C3.65137 23.3164 4.86719 23.2959 6.00977 23.208C7.1582 23.126 8.21582 22.9795 9.18262 22.7686C10.1553 22.5635 11.0312 22.3057 11.8105 21.9951C12.5957 21.6846 13.2725 21.3271 13.8408 20.9229C14.0928 20.7529 14.2539 20.5918 14.3242 20.4395C14.3945 20.2871 14.4297 20.0703 14.4297 19.7891V2.90527C14.4297 2.72949 14.3682 2.61523 14.2451 2.5625C14.1279 2.50391 13.9756 2.50391 13.7881 2.5625C12.1709 3.06055 10.4512 3.47656 8.62891 3.81055C6.80664 4.13867 4.93457 4.30273 3.0127 4.30273H2.46777C2.11621 4.30273 1.94043 4.49316 1.94043 4.87402V22.8389ZM4.2168 7.23828C4.2168 7.0625 4.30762 6.96875 4.48926 6.95703C5.74316 6.91016 6.96484 6.77832 8.1543 6.56152C9.34375 6.34473 10.5244 6.03125 11.6963 5.62109C11.7607 5.5918 11.8369 5.59766 11.9248 5.63867C12.0127 5.67383 12.0566 5.75586 12.0566 5.88477V9.75195C12.0566 9.86914 12.0039 9.94824 11.8984 9.98926C11.2188 10.2646 10.4717 10.499 9.65723 10.6924C8.84277 10.8799 7.99609 11.0205 7.11719 11.1143C6.23828 11.208 5.3623 11.2549 4.48926 11.2549C4.30762 11.2549 4.2168 11.1699 4.2168 11V7.23828Z" fill="#E20000"/>
</svg>
