<svg width="20" height="28" viewBox="0 0 20 28" fill="none" xmlns="http://www.w3.org/2000/svg">
<path d="M5.16638 12.5537C4.90857 12.5537 4.68298 12.46 4.48962 12.2725C4.30212 12.085 4.20837 11.8623 4.20837 11.6045C4.20837 11.3408 4.30212 11.1152 4.48962 10.9277C4.68298 10.7402 4.90857 10.6465 5.16638 10.6465C5.43005 10.6465 5.65564 10.7402 5.84314 10.9277C6.03064 11.1094 6.12439 11.335 6.12439 11.6045C6.12439 11.8623 6.03064 12.085 5.84314 12.2725C5.65564 12.46 5.43005 12.5537 5.16638 12.5537ZM5.16638 16.5967C4.90271 16.5967 4.67712 16.5059 4.48962 16.3242C4.30212 16.1367 4.20837 15.9111 4.20837 15.6475C4.20837 15.3838 4.30212 15.1611 4.48962 14.9795C4.67712 14.7979 4.90271 14.707 5.16638 14.707C5.43005 14.707 5.65564 14.7979 5.84314 14.9795C6.03064 15.1553 6.12439 15.3779 6.12439 15.6475C6.12439 15.9111 6.03064 16.1367 5.84314 16.3242C5.65564 16.5059 5.43005 16.5967 5.16638 16.5967ZM5.16638 20.877C4.90857 20.877 4.68298 20.7832 4.48962 20.5957C4.30212 20.4023 4.20837 20.1768 4.20837 19.9189C4.20837 19.6611 4.30212 19.4385 4.48962 19.251C4.68298 19.0576 4.90857 18.9609 5.16638 18.9609C5.43005 18.9609 5.65564 19.0547 5.84314 19.2422C6.03064 19.4297 6.12439 19.6553 6.12439 19.9189C6.12439 20.1826 6.03064 20.4082 5.84314 20.5957C5.65564 20.7832 5.43005 20.877 5.16638 20.877ZM8.14587 12.3164C7.94666 12.3164 7.77673 12.2461 7.63611 12.1055C7.49548 11.9648 7.42517 11.7979 7.42517 11.6045C7.42517 11.4053 7.49548 11.2383 7.63611 11.1035C7.77673 10.9629 7.94666 10.8926 8.14587 10.8926H14.7465C14.9398 10.8926 15.1068 10.9629 15.2474 11.1035C15.3881 11.2383 15.4584 11.4053 15.4584 11.6045C15.4584 11.7979 15.3881 11.9648 15.2474 12.1055C15.1068 12.2461 14.9398 12.3164 14.7465 12.3164H8.14587ZM8.14587 16.3594C7.9408 16.3594 7.76794 16.292 7.62732 16.1572C7.49255 16.0166 7.42517 15.8467 7.42517 15.6475C7.42517 15.4482 7.49255 15.2812 7.62732 15.1465C7.76794 15.0117 7.9408 14.9443 8.14587 14.9443H14.7465C14.9398 14.9443 15.1068 15.0117 15.2474 15.1465C15.3881 15.2812 15.4584 15.4482 15.4584 15.6475C15.4584 15.8467 15.3881 16.0166 15.2474 16.1572C15.1068 16.292 14.9398 16.3594 14.7465 16.3594H8.14587ZM8.14587 20.6309C7.94666 20.6309 7.77673 20.5605 7.63611 20.4199C7.49548 20.2793 7.42517 20.1123 7.42517 19.9189C7.42517 19.7256 7.49255 19.5615 7.62732 19.4268C7.76794 19.2861 7.9408 19.2158 8.14587 19.2158H14.7465C14.9398 19.2158 15.1068 19.2861 15.2474 19.4268C15.3881 19.5615 15.4584 19.7256 15.4584 19.9189C15.4584 20.1123 15.3881 20.2793 15.2474 20.4199C15.1068 20.5605 14.9398 20.6309 14.7465 20.6309H8.14587ZM3.7865 27.7676C2.62634 27.7676 1.74451 27.46 1.14099 26.8447C0.537476 26.2354 0.235718 25.3447 0.235718 24.1729V6.86719C0.235718 5.70703 0.528687 4.81641 1.11462 4.19531C1.70642 3.57422 2.56775 3.26367 3.69861 3.26367H4.11169C4.09412 3.32812 4.07947 3.39551 4.06775 3.46582C4.06189 3.53027 4.05896 3.59766 4.05896 3.66797V4.59961C4.05896 4.82227 4.08533 5.0127 4.13806 5.1709H3.75134C3.21814 5.1709 2.81384 5.32324 2.53845 5.62793C2.26892 5.93262 2.13416 6.35449 2.13416 6.89355V24.1465C2.13416 24.6973 2.28064 25.1191 2.57361 25.4121C2.87244 25.7109 3.30896 25.8604 3.88318 25.8604H15.7748C16.349 25.8604 16.7826 25.7109 17.0756 25.4121C17.3744 25.1191 17.5238 24.6973 17.5238 24.1465V6.89355C17.5238 6.35449 17.3861 5.93262 17.1107 5.62793C16.8412 5.32324 16.4398 5.1709 15.9066 5.1709H15.5287C15.5756 5.0127 15.599 4.82227 15.599 4.59961V3.66797C15.599 3.59766 15.5931 3.53027 15.5814 3.46582C15.5756 3.39551 15.5638 3.32812 15.5463 3.26367H15.9594C17.0902 3.26367 17.9486 3.57422 18.5345 4.19531C19.1263 4.81641 19.4222 5.70703 19.4222 6.86719V24.1729C19.4222 25.3447 19.1205 26.2354 18.517 26.8447C17.9135 27.46 17.0316 27.7676 15.8715 27.7676H3.7865ZM6.35291 5.91797C6.03064 5.91797 5.77576 5.82422 5.58826 5.63672C5.40662 5.44922 5.3158 5.18555 5.3158 4.8457V3.65918C5.3158 3.3252 5.40662 3.06445 5.58826 2.87695C5.77576 2.68359 6.03064 2.58691 6.35291 2.58691H7.3988C7.4281 2.16504 7.55408 1.78125 7.77673 1.43555C7.99939 1.08398 8.28943 0.805664 8.64685 0.600586C9.00427 0.389648 9.39978 0.28418 9.83337 0.28418C10.267 0.28418 10.6625 0.389648 11.0199 0.600586C11.3773 0.805664 11.6644 1.08398 11.8812 1.43555C12.1039 1.78125 12.2299 2.16504 12.2592 2.58691H13.3051C13.6273 2.58691 13.8793 2.68359 14.0609 2.87695C14.2484 3.06445 14.3422 3.3252 14.3422 3.65918V4.8457C14.3422 5.18555 14.2484 5.44922 14.0609 5.63672C13.8793 5.82422 13.6273 5.91797 13.3051 5.91797H6.35291ZM9.83337 3.67676C10.1088 3.67676 10.3461 3.57715 10.5453 3.37793C10.7445 3.17285 10.8441 2.93555 10.8441 2.66602C10.8441 2.38477 10.7445 2.14746 10.5453 1.9541C10.3461 1.75488 10.1088 1.65527 9.83337 1.65527C9.55212 1.65527 9.31189 1.75488 9.11267 1.9541C8.91345 2.14746 8.81384 2.38477 8.81384 2.66602C8.81384 2.93555 8.91345 3.17285 9.11267 3.37793C9.31189 3.57715 9.55212 3.67676 9.83337 3.67676Z" fill="#E20000"/>
</svg>
