<svg width="24" height="22" viewBox="0 0 24 22" fill="none" xmlns="http://www.w3.org/2000/svg">
<path d="M4.3092 21.0469C3.13147 21.0469 2.23792 20.748 1.62854 20.1504C1.02502 19.5527 0.723267 18.668 0.723267 17.4961V3.65332C0.723267 2.4873 1.02502 1.60547 1.62854 1.00781C2.23792 0.410156 3.13147 0.111328 4.3092 0.111328H20.024C21.2018 0.111328 22.0924 0.413086 22.6959 1.0166C23.3053 1.61426 23.61 2.49316 23.61 3.65332V17.4961C23.61 18.6621 23.3053 19.5439 22.6959 20.1416C22.0924 20.7451 21.2018 21.0469 20.024 21.0469H4.3092ZM4.28284 19.1133H20.0328C20.5543 19.1133 20.9557 18.9756 21.2369 18.7002C21.524 18.4307 21.6676 18.0205 21.6676 17.4697V7.11621C21.6676 6.57129 21.524 6.16406 21.2369 5.89453C20.9557 5.61914 20.5543 5.48145 20.0328 5.48145H4.28284C3.75549 5.48145 3.35413 5.61914 3.07874 5.89453C2.80334 6.16406 2.66565 6.57129 2.66565 7.11621V17.4697C2.66565 18.0205 2.80334 18.4307 3.07874 18.7002C3.35413 18.9756 3.75549 19.1133 4.28284 19.1133ZM9.96057 9.41895C9.76721 9.41895 9.63245 9.38379 9.55627 9.31348C9.48596 9.24316 9.45081 9.11426 9.45081 8.92676V8.25879C9.45081 8.07129 9.48596 7.94531 9.55627 7.88086C9.63245 7.81055 9.76721 7.77539 9.96057 7.77539H10.6285C10.8219 7.77539 10.9537 7.81055 11.024 7.88086C11.0944 7.94531 11.1295 8.07129 11.1295 8.25879V8.92676C11.1295 9.11426 11.0944 9.24316 11.024 9.31348C10.9537 9.38379 10.8219 9.41895 10.6285 9.41895H9.96057ZM13.7135 9.41895C13.526 9.41895 13.3942 9.38379 13.318 9.31348C13.2477 9.24316 13.2125 9.11426 13.2125 8.92676V8.25879C13.2125 8.07129 13.2477 7.94531 13.318 7.88086C13.3942 7.81055 13.526 7.77539 13.7135 7.77539H14.3815C14.5748 7.77539 14.7067 7.81055 14.777 7.88086C14.8473 7.94531 14.8824 8.07129 14.8824 8.25879V8.92676C14.8824 9.11426 14.8473 9.24316 14.777 9.31348C14.7067 9.38379 14.5748 9.41895 14.3815 9.41895H13.7135ZM17.4752 9.41895C17.2819 9.41895 17.15 9.38379 17.0797 9.31348C17.0094 9.24316 16.9742 9.11426 16.9742 8.92676V8.25879C16.9742 8.07129 17.0094 7.94531 17.0797 7.88086C17.15 7.81055 17.2819 7.77539 17.4752 7.77539H18.1432C18.3307 7.77539 18.4596 7.81055 18.5299 7.88086C18.6061 7.94531 18.6442 8.07129 18.6442 8.25879V8.92676C18.6442 9.11426 18.6061 9.24316 18.5299 9.31348C18.4596 9.38379 18.3307 9.41895 18.1432 9.41895H17.4752ZM6.19885 13.1191C6.00549 13.1191 5.87366 13.084 5.80334 13.0137C5.73303 12.9434 5.69788 12.8145 5.69788 12.627V11.959C5.69788 11.7656 5.73303 11.6367 5.80334 11.5723C5.87366 11.5078 6.00549 11.4756 6.19885 11.4756H6.86682C7.05432 11.4756 7.18323 11.5078 7.25354 11.5723C7.32971 11.6367 7.3678 11.7656 7.3678 11.959V12.627C7.3678 12.8145 7.32971 12.9434 7.25354 13.0137C7.18323 13.084 7.05432 13.1191 6.86682 13.1191H6.19885ZM9.96057 13.1191C9.76721 13.1191 9.63245 13.084 9.55627 13.0137C9.48596 12.9434 9.45081 12.8145 9.45081 12.627V11.959C9.45081 11.7656 9.48596 11.6367 9.55627 11.5723C9.63245 11.5078 9.76721 11.4756 9.96057 11.4756H10.6285C10.8219 11.4756 10.9537 11.5078 11.024 11.5723C11.0944 11.6367 11.1295 11.7656 11.1295 11.959V12.627C11.1295 12.8145 11.0944 12.9434 11.024 13.0137C10.9537 13.084 10.8219 13.1191 10.6285 13.1191H9.96057ZM13.7135 13.1191C13.526 13.1191 13.3942 13.084 13.318 13.0137C13.2477 12.9434 13.2125 12.8145 13.2125 12.627V11.959C13.2125 11.7656 13.2477 11.6367 13.318 11.5723C13.3942 11.5078 13.526 11.4756 13.7135 11.4756H14.3815C14.5748 11.4756 14.7067 11.5078 14.777 11.5723C14.8473 11.6367 14.8824 11.7656 14.8824 11.959V12.627C14.8824 12.8145 14.8473 12.9434 14.777 13.0137C14.7067 13.084 14.5748 13.1191 14.3815 13.1191H13.7135ZM17.4752 13.1191C17.2819 13.1191 17.15 13.084 17.0797 13.0137C17.0094 12.9434 16.9742 12.8145 16.9742 12.627V11.959C16.9742 11.7656 17.0094 11.6367 17.0797 11.5723C17.15 11.5078 17.2819 11.4756 17.4752 11.4756H18.1432C18.3307 11.4756 18.4596 11.5078 18.5299 11.5723C18.6061 11.6367 18.6442 11.7656 18.6442 11.959V12.627C18.6442 12.8145 18.6061 12.9434 18.5299 13.0137C18.4596 13.084 18.3307 13.1191 18.1432 13.1191H17.4752ZM6.19885 16.8105C6.00549 16.8105 5.87366 16.7783 5.80334 16.7139C5.73303 16.6494 5.69788 16.5205 5.69788 16.3271V15.668C5.69788 15.4746 5.73303 15.3457 5.80334 15.2812C5.87366 15.2109 6.00549 15.1758 6.19885 15.1758H6.86682C7.05432 15.1758 7.18323 15.2109 7.25354 15.2812C7.32971 15.3457 7.3678 15.4746 7.3678 15.668V16.3271C7.3678 16.5205 7.32971 16.6494 7.25354 16.7139C7.18323 16.7783 7.05432 16.8105 6.86682 16.8105H6.19885ZM9.96057 16.8105C9.76721 16.8105 9.63245 16.7783 9.55627 16.7139C9.48596 16.6494 9.45081 16.5205 9.45081 16.3271V15.668C9.45081 15.4746 9.48596 15.3457 9.55627 15.2812C9.63245 15.2109 9.76721 15.1758 9.96057 15.1758H10.6285C10.8219 15.1758 10.9537 15.2109 11.024 15.2812C11.0944 15.3457 11.1295 15.4746 11.1295 15.668V16.3271C11.1295 16.5205 11.0944 16.6494 11.024 16.7139C10.9537 16.7783 10.8219 16.8105 10.6285 16.8105H9.96057ZM13.7135 16.8105C13.526 16.8105 13.3942 16.7783 13.318 16.7139C13.2477 16.6494 13.2125 16.5205 13.2125 16.3271V15.668C13.2125 15.4746 13.2477 15.3457 13.318 15.2812C13.3942 15.2109 13.526 15.1758 13.7135 15.1758H14.3815C14.5748 15.1758 14.7067 15.2109 14.777 15.2812C14.8473 15.3457 14.8824 15.4746 14.8824 15.668V16.3271C14.8824 16.5205 14.8473 16.6494 14.777 16.7139C14.7067 16.7783 14.5748 16.8105 14.3815 16.8105H13.7135Z" fill="#E20000"/>
</svg>
