<svg width="25" height="26" viewBox="0 0 25 26" fill="none" xmlns="http://www.w3.org/2000/svg">
<path d="M12.5 23.5088C12.3652 23.5088 12.2275 23.5059 12.0869 23.5C11.9521 23.4941 11.8174 23.4883 11.6826 23.4824L11.085 24.5898C11.0029 24.7422 10.8975 24.8506 10.7686 24.915C10.6396 24.9854 10.4932 25.0029 10.3291 24.9678C10.165 24.9385 10.0332 24.8711 9.93359 24.7656C9.83398 24.6602 9.76953 24.5225 9.74023 24.3525L9.56445 23.1133C9.30078 23.0371 9.04004 22.9521 8.78223 22.8584C8.52441 22.7705 8.27246 22.668 8.02637 22.5508L7.08594 23.3857C6.96289 23.5029 6.82812 23.5674 6.68164 23.5791C6.54102 23.5967 6.39453 23.5674 6.24219 23.4912C6.10156 23.3975 6.00195 23.2861 5.94336 23.1572C5.89062 23.0283 5.87891 22.876 5.9082 22.7002L6.16309 21.4785C5.94629 21.3145 5.72949 21.1445 5.5127 20.9688C5.30176 20.7988 5.10254 20.6143 4.91504 20.415L3.74609 20.8896C3.58789 20.9541 3.43848 20.9688 3.29785 20.9336C3.15723 20.9043 3.03125 20.8252 2.91992 20.6963C2.81445 20.5674 2.75586 20.4297 2.74414 20.2832C2.73242 20.1367 2.77344 19.9873 2.86719 19.835L3.53516 18.7803C3.37695 18.5518 3.23047 18.3203 3.0957 18.0859C2.96094 17.8516 2.83203 17.6113 2.70898 17.3652L1.46094 17.3916C1.28516 17.3975 1.13574 17.3652 1.0127 17.2949C0.895508 17.2188 0.807617 17.0986 0.749023 16.9346C0.696289 16.7764 0.6875 16.627 0.722656 16.4863C0.763672 16.3457 0.854492 16.2227 0.995117 16.1172L1.97949 15.3438C1.90918 15.0801 1.85059 14.8135 1.80371 14.5439C1.75684 14.2744 1.71875 14.002 1.68945 13.7266L0.494141 13.3398C0.330078 13.2871 0.204102 13.2021 0.116211 13.085C0.0341797 12.9678 -0.00683594 12.8242 -0.00683594 12.6543C-0.00683594 12.4785 0.0341797 12.332 0.116211 12.2148C0.204102 12.0977 0.330078 12.0156 0.494141 11.9688L1.68945 11.582C1.71875 11.3066 1.75684 11.0342 1.80371 10.7646C1.85059 10.4951 1.90918 10.2285 1.97949 9.96484L0.995117 9.19141C0.860352 9.08594 0.769531 8.96289 0.722656 8.82227C0.681641 8.68164 0.69043 8.53223 0.749023 8.37402C0.807617 8.21582 0.898438 8.0957 1.02148 8.01367C1.14453 7.93164 1.29102 7.89355 1.46094 7.89941L2.7002 7.95215C2.8291 7.7002 2.96094 7.45703 3.0957 7.22266C3.23047 6.98242 3.37695 6.75098 3.53516 6.52832L2.86719 5.46484C2.7793 5.31836 2.73828 5.17188 2.74414 5.02539C2.75 4.87891 2.80859 4.74121 2.91992 4.6123C3.02539 4.4834 3.14844 4.40137 3.28906 4.36621C3.43555 4.33105 3.59082 4.3457 3.75488 4.41016L4.91504 4.88477C5.1084 4.69141 5.30762 4.50977 5.5127 4.33984C5.72363 4.16406 5.94043 3.99707 6.16309 3.83887L5.9082 2.59961C5.87305 2.43555 5.88184 2.28613 5.93457 2.15137C5.99316 2.01074 6.0957 1.89941 6.24219 1.81738C6.38867 1.74121 6.53516 1.70898 6.68164 1.7207C6.83398 1.73242 6.97461 1.79688 7.10352 1.91406L8.01758 2.75781C8.26367 2.64648 8.51562 2.54395 8.77344 2.4502C9.03125 2.35059 9.29492 2.26562 9.56445 2.19531L9.74902 0.947266C9.77246 0.783203 9.83105 0.648438 9.9248 0.542969C10.0244 0.431641 10.1592 0.361328 10.3291 0.332031C10.4932 0.308594 10.6396 0.329102 10.7686 0.393555C10.8975 0.452148 11.0059 0.560547 11.0938 0.71875L11.6826 1.82617C11.8174 1.81445 11.9521 1.80566 12.0869 1.7998C12.2275 1.79395 12.3652 1.79102 12.5 1.79102C12.6348 1.79102 12.7695 1.79395 12.9043 1.7998C13.0449 1.80566 13.1826 1.81445 13.3174 1.82617L13.915 0.71875C13.9971 0.566406 14.1025 0.458008 14.2314 0.393555C14.3604 0.323242 14.5068 0.302734 14.6709 0.332031C14.835 0.367188 14.9668 0.4375 15.0664 0.542969C15.1719 0.642578 15.2334 0.780273 15.251 0.956055L15.4268 2.19531C15.6963 2.26562 15.96 2.34766 16.2178 2.44141C16.4756 2.53516 16.7275 2.6377 16.9736 2.74902L17.9141 1.92285C18.0371 1.81152 18.1689 1.74707 18.3096 1.72949C18.4561 1.70605 18.6055 1.73535 18.7578 1.81738C18.9043 1.90527 19.0039 2.0166 19.0566 2.15137C19.1152 2.28027 19.127 2.43262 19.0918 2.6084L18.8281 3.82129C19.0508 3.97949 19.2676 4.14648 19.4785 4.32227C19.6895 4.49805 19.8916 4.68555 20.085 4.88477L21.2539 4.41016C21.4062 4.35156 21.5527 4.33691 21.6934 4.36621C21.8398 4.39551 21.9688 4.47754 22.0801 4.6123C22.1855 4.74121 22.2441 4.87891 22.2559 5.02539C22.2676 5.17188 22.2266 5.31836 22.1328 5.46484L21.4736 6.51953C21.6201 6.74219 21.7607 6.97363 21.8955 7.21387C22.0361 7.44824 22.168 7.69141 22.291 7.94336L23.5391 7.9082C23.709 7.90234 23.8555 7.9375 23.9785 8.01367C24.1016 8.08984 24.1924 8.20703 24.251 8.36523C24.3037 8.5293 24.3125 8.68164 24.2773 8.82227C24.2422 8.96289 24.1514 9.08594 24.0049 9.19141L23.0205 9.95605C23.0908 10.2256 23.1494 10.4951 23.1963 10.7646C23.2432 11.0342 23.2812 11.3066 23.3105 11.582L24.4971 11.9688C24.667 12.0156 24.793 12.0977 24.875 12.2148C24.9629 12.332 25.0068 12.4785 25.0068 12.6543C25.0068 12.8242 24.9629 12.9678 24.875 13.085C24.793 13.2021 24.667 13.2871 24.4971 13.3398L23.3105 13.7266C23.2812 14.002 23.2432 14.2744 23.1963 14.5439C23.1494 14.8135 23.0908 15.0801 23.0205 15.3438L24.0137 16.1084C24.1484 16.2197 24.2363 16.3457 24.2773 16.4863C24.3184 16.6211 24.3096 16.7676 24.251 16.9258C24.1924 17.084 24.1016 17.2041 23.9785 17.2861C23.8555 17.3682 23.709 17.4062 23.5391 17.4004L22.291 17.3564C22.168 17.6025 22.0361 17.8457 21.8955 18.0859C21.7607 18.3203 21.6201 18.5488 21.4736 18.7715L22.1328 19.835C22.2266 19.9873 22.2676 20.1338 22.2559 20.2744C22.25 20.4209 22.1943 20.5586 22.0889 20.6875C21.9717 20.8164 21.8428 20.8984 21.7021 20.9336C21.5615 20.9688 21.4092 20.9541 21.2451 20.8896L20.0938 20.4238C19.8945 20.6113 19.6895 20.793 19.4785 20.9688C19.2734 21.1445 19.0566 21.3115 18.8281 21.4697L19.083 22.7002C19.124 22.8701 19.1152 23.0225 19.0566 23.1572C19.0039 23.292 18.9014 23.4004 18.749 23.4824C18.6025 23.5586 18.4561 23.5908 18.3096 23.5791C18.1689 23.5732 18.0342 23.5088 17.9053 23.3857L16.9824 22.5508C16.7305 22.6621 16.4756 22.7646 16.2178 22.8584C15.96 22.9521 15.6992 23.0371 15.4355 23.1133L15.251 24.3525C15.2275 24.5225 15.166 24.6602 15.0664 24.7656C14.9727 24.877 14.8408 24.9443 14.6709 24.9678C14.5068 24.9912 14.3604 24.9707 14.2314 24.9062C14.1025 24.8477 13.9971 24.7422 13.915 24.5898L13.3262 23.4824C13.1855 23.4883 13.0449 23.4941 12.9043 23.5C12.7695 23.5059 12.6348 23.5088 12.5 23.5088ZM12.5 21.5928C13.7363 21.5928 14.8936 21.3613 15.9717 20.8984C17.0557 20.4355 18.0049 19.7939 18.8193 18.9736C19.6396 18.1533 20.2812 17.2041 20.7441 16.126C21.2129 15.042 21.4473 13.8848 21.4473 12.6543C21.4473 11.418 21.2129 10.2607 20.7441 9.18262C20.2812 8.09863 19.6396 7.14648 18.8193 6.32617C18.0049 5.50586 17.0557 4.86426 15.9717 4.40137C14.8936 3.93848 13.7363 3.70703 12.5 3.70703C11.2637 3.70703 10.1035 3.93848 9.01953 4.40137C7.94141 4.86426 6.99219 5.50586 6.17188 6.32617C5.35156 7.14648 4.70996 8.09863 4.24707 9.18262C3.78418 10.2607 3.55273 11.418 3.55273 12.6543C3.55273 13.8848 3.78418 15.042 4.24707 16.126C4.70996 17.2041 5.35156 18.1533 6.17188 18.9736C6.99219 19.7939 7.94141 20.4355 9.01953 20.8984C10.1035 21.3613 11.2637 21.5928 12.5 21.5928ZM10.4785 10.8613L6.68164 4.36621L8.14062 3.59277L11.876 10L10.4785 10.8613ZM15.0752 13.4453V11.8018H22.5107V13.4453H15.0752ZM11.9023 15.3174L8.02637 21.6982L6.59375 20.8896L10.5312 14.4297L11.9023 15.3174ZM12.5088 15.6602C11.9521 15.6602 11.4453 15.5254 10.9883 15.2559C10.5371 14.9863 10.1768 14.623 9.90723 14.166C9.6377 13.709 9.50293 13.2051 9.50293 12.6543C9.50293 12.0977 9.6377 11.5938 9.90723 11.1426C10.1768 10.6855 10.5371 10.3223 10.9883 10.0527C11.4453 9.77734 11.9521 9.63965 12.5088 9.63965C13.0596 9.63965 13.5635 9.77734 14.0205 10.0527C14.4775 10.3223 14.8408 10.6855 15.1104 11.1426C15.3799 11.5938 15.5146 12.0977 15.5146 12.6543C15.5146 13.2051 15.3799 13.709 15.1104 14.166C14.8408 14.623 14.4775 14.9863 14.0205 15.2559C13.5635 15.5254 13.0596 15.6602 12.5088 15.6602ZM12.5088 13.999C12.8779 13.999 13.1943 13.8672 13.458 13.6035C13.7217 13.3398 13.8535 13.0234 13.8535 12.6543C13.8535 12.2793 13.7217 11.9629 13.458 11.7051C13.1943 11.4414 12.8779 11.3096 12.5088 11.3096C12.1396 11.3096 11.8232 11.4414 11.5596 11.7051C11.2959 11.9629 11.1641 12.2793 11.1641 12.6543C11.1641 13.0234 11.2959 13.3398 11.5596 13.6035C11.8232 13.8672 12.1396 13.999 12.5088 13.999Z" fill="#E20000"/>
</svg>
